<svg width="21" height="31" viewBox="0 0 21 31" fill="none" xmlns="http://www.w3.org/2000/svg">
<path d="M3.43341 24.7481C2.70586 24.7481 2.08457 24.5947 1.56956 24.2879C1.06272 23.9891 0.67442 23.5733 0.404652 23.0404C0.134884 22.5075 0 21.8939 0 21.1995V12.5156C0 11.4417 0.040874 10.392 0.122622 9.36661C0.20437 8.3331 0.314729 7.37226 0.453701 6.48409C0.592672 5.58785 0.747993 4.80868 0.919664 4.14659C1.08316 3.46027 1.34475 2.84259 1.70444 2.29354C2.07231 1.74449 2.5301 1.29637 3.07781 0.949171C3.6337 0.601977 4.27542 0.392045 5.00297 0.319377C5.39536 0.279006 6.0657 0.23056 7.01397 0.17404C7.97042 0.109446 9.06993 0.0771484 10.3125 0.0771484C11.5551 0.0771484 12.6505 0.109446 13.5988 0.17404C14.5552 0.23056 15.2296 0.279006 15.622 0.319377C16.3414 0.392045 16.975 0.601977 17.5227 0.949171C18.0786 1.29637 18.5404 1.74449 18.9083 2.29354C19.2762 2.84259 19.5418 3.46027 19.7053 4.14659C19.8688 4.80868 20.0201 5.58785 20.159 6.48409C20.298 7.37226 20.4084 8.3331 20.4901 9.36661C20.58 10.392 20.625 11.4417 20.625 12.5156V21.1995C20.625 21.8939 20.4901 22.5075 20.2203 23.0404C19.9506 23.5733 19.5582 23.9891 19.0432 24.2879C18.5363 24.5947 17.9191 24.7481 17.1916 24.7481H3.43341ZM7.17338 3.8438H13.4394C13.6683 3.8438 13.8522 3.77517 13.9912 3.63791C14.1301 3.50064 14.1996 3.31897 14.1996 3.09289C14.1996 2.87489 14.1301 2.70129 13.9912 2.5721C13.8522 2.43484 13.6683 2.36621 13.4394 2.36621H7.17338C6.94449 2.36621 6.76055 2.43484 6.62158 2.5721C6.49078 2.70129 6.42539 2.87489 6.42539 3.09289C6.42539 3.31897 6.49078 3.50064 6.62158 3.63791C6.76055 3.77517 6.94449 3.8438 7.17338 3.8438ZM10.3125 16.7546C11.3997 16.7546 12.5524 16.7304 13.7704 16.6819C14.9885 16.6335 16.0921 16.5568 17.0812 16.4518C17.4491 16.4114 17.7107 16.2822 17.866 16.0642C18.0213 15.8382 18.099 15.5515 18.099 15.2043V12.4187C18.099 11.6032 18.0745 10.8482 18.0254 10.1539C17.9764 9.45947 17.9151 8.85389 17.8415 8.33714C17.7679 7.82039 17.6984 7.42071 17.633 7.13811C17.5676 6.87166 17.4491 6.64962 17.2774 6.47198C17.1139 6.29435 16.8932 6.18938 16.6153 6.15708C15.9368 6.07634 15.1234 6.01175 14.1751 5.9633C13.2268 5.90678 11.9393 5.88256 10.3125 5.89063C8.68572 5.89871 7.3941 5.92697 6.43765 5.97541C5.4812 6.01578 4.65554 6.07634 3.96069 6.15708C3.69909 6.18938 3.48655 6.29435 3.32305 6.47198C3.15956 6.64962 3.04511 6.87166 2.97971 7.13811C2.91431 7.42071 2.84483 7.82039 2.77125 8.33714C2.69768 8.85389 2.63637 9.45947 2.58732 10.1539C2.53827 10.8482 2.51375 11.6032 2.51375 12.4187V15.2043C2.51375 15.5434 2.59141 15.826 2.74673 16.0521C2.90205 16.2701 3.16364 16.4033 3.53151 16.4518C4.19367 16.5325 5.13377 16.6012 6.35181 16.6577C7.56986 16.7142 8.89009 16.7465 10.3125 16.7546ZM4.61058 22.2047C5.0929 22.2047 5.49346 22.0513 5.81228 21.7445C6.13927 21.4296 6.30276 21.0299 6.30276 20.5455C6.30276 20.061 6.14336 19.6654 5.82454 19.3585C5.50572 19.0436 5.10107 18.8862 4.61058 18.8862C4.12827 18.8862 3.72771 19.0436 3.40889 19.3585C3.09825 19.6654 2.94293 20.061 2.94293 20.5455C2.94293 21.0299 3.09825 21.4296 3.40889 21.7445C3.72771 22.0513 4.12827 22.2047 4.61058 22.2047ZM15.9899 22.2168C16.464 22.2168 16.8646 22.0594 17.1916 21.7445C17.5186 21.4215 17.6821 21.0218 17.6821 20.5455C17.6821 20.0691 17.5186 19.6734 17.1916 19.3585C16.8728 19.0356 16.4722 18.8741 15.9899 18.8741C15.5076 18.8741 15.1029 19.0356 14.7759 19.3585C14.4489 19.6734 14.2854 20.0691 14.2854 20.5455C14.2854 21.0218 14.4489 21.4215 14.7759 21.7445C15.1029 22.0594 15.5076 22.2168 15.9899 22.2168ZM1.86385 30.0771C1.66766 30.0771 1.50825 30.0247 1.38563 29.9197C1.27118 29.8147 1.20169 29.6815 1.17717 29.52C1.16082 29.3585 1.20578 29.193 1.31205 29.0235L4.40213 24.1183H6.7442L3.26174 29.6654C3.09825 29.9399 2.86118 30.0771 2.55054 30.0771H1.86385ZM2.94293 28.5511V26.7344H17.7189V28.5511H2.94293ZM18.1235 30.0771C17.8129 30.0771 17.5717 29.9399 17.4 29.6654L13.9176 24.1183H16.2597L19.3252 29.0235C19.4315 29.193 19.4764 29.3545 19.4601 29.5079C19.4437 29.6694 19.3783 29.8026 19.2639 29.9076C19.1494 30.0206 18.9982 30.0771 18.8102 30.0771H18.1235Z" fill="#5A5A5A"/>
</svg>
