<svg width="37" height="37" viewBox="0 0 37 37" fill="none" xmlns="http://www.w3.org/2000/svg">
<path d="M20.0844 3.0849C21.2094 3.08059 22.3344 3.09189 23.4591 3.11882L23.7582 3.12961C24.1035 3.14195 24.4443 3.15736 24.8559 3.17586C26.4962 3.25295 27.6155 3.51195 28.5975 3.89274C29.615 4.28432 30.4722 4.81465 31.3293 5.67182C32.1131 6.44205 32.7197 7.37374 33.1069 8.40211C33.4877 9.38415 33.7467 10.5049 33.8238 12.1453C33.8423 12.5554 33.8577 12.8976 33.87 13.2429L33.8793 13.542C33.9066 14.6662 33.9185 15.7907 33.9147 16.9152L33.9163 18.0653V20.0849C33.9201 21.2099 33.9082 22.3349 33.8808 23.4596L33.8715 23.7587C33.8592 24.104 33.8438 24.4447 33.8253 24.8563C33.7482 26.4967 33.4861 27.6159 33.1069 28.5979C32.7209 29.6274 32.1142 30.5599 31.3293 31.3298C30.5584 32.1134 29.6263 32.72 28.5975 33.1073C27.6155 33.4881 26.4962 33.7471 24.8559 33.8242C24.4443 33.8427 24.1035 33.8581 23.7582 33.8704L23.4591 33.8797C22.3344 33.9071 21.2094 33.9189 20.0844 33.9152L18.9343 33.9167H16.9163C15.7913 33.9205 14.6663 33.9087 13.5416 33.8812L13.2425 33.872C12.8765 33.8587 12.5106 33.8433 12.1448 33.8257C10.5045 33.7487 9.38525 33.4866 8.40167 33.1073C7.37289 32.7209 6.44104 32.1142 5.67138 31.3298C4.88674 30.5594 4.2796 29.6271 3.8923 28.5979C3.5115 27.6159 3.2525 26.4967 3.17542 24.8563C3.15825 24.4905 3.14283 24.1246 3.12917 23.7587L3.12146 23.4596C3.09304 22.3349 3.08019 21.2099 3.08292 20.0849V16.9152C3.07862 15.7907 3.08992 14.6662 3.11684 13.542L3.12763 13.2429C3.13996 12.8976 3.15538 12.5554 3.17388 12.1453C3.25096 10.5034 3.50996 9.3857 3.89075 8.40211C4.27829 7.37324 4.88662 6.4418 5.67292 5.67336C6.44205 4.88827 7.37332 4.28058 8.40167 3.89274C9.38525 3.51195 10.503 3.25295 12.1448 3.17586L13.2425 3.12961L13.5416 3.1219C14.6657 3.0935 15.7902 3.08065 16.9148 3.08336L20.0844 3.0849ZM18.4996 10.7932C17.4782 10.7788 16.4642 10.9675 15.5164 11.3483C14.5686 11.7292 13.706 12.2946 12.9786 13.0118C12.2513 13.7289 11.6737 14.5835 11.2795 15.5258C10.8853 16.4681 10.6822 17.4794 10.6822 18.5008C10.6822 19.5222 10.8853 20.5335 11.2795 21.4758C11.6737 22.4181 12.2513 23.2727 12.9786 23.9898C13.706 24.707 14.5686 25.2724 15.5164 25.6533C16.4642 26.0341 17.4782 26.2228 18.4996 26.2084C20.544 26.2084 22.5046 25.3962 23.9502 23.9506C25.3958 22.5051 26.2079 20.5444 26.2079 18.5C26.2079 16.4557 25.3958 14.495 23.9502 13.0494C22.5046 11.6038 20.544 10.7932 18.4996 10.7932ZM18.4996 13.8766C19.114 13.8653 19.7244 13.9765 20.2953 14.2037C20.8662 14.431 21.3861 14.7697 21.8246 15.2002C22.2631 15.6306 22.6115 16.1441 22.8493 16.7107C23.0871 17.2773 23.2097 17.8855 23.2098 18.5C23.2099 19.1145 23.0876 19.7228 22.8499 20.2895C22.6123 20.8561 22.2641 21.3697 21.8257 21.8003C21.3874 22.2309 20.8676 22.5698 20.2967 22.7973C19.7259 23.0247 19.1155 23.1361 18.5011 23.125C17.2745 23.125 16.0981 22.6378 15.2308 21.7704C14.3634 20.903 13.8761 19.7267 13.8761 18.5C13.8761 17.2734 14.3634 16.097 15.2308 15.2297C16.0981 14.3623 17.2745 13.875 18.5011 13.875L18.4996 13.8766ZM26.5933 8.48074C26.096 8.50064 25.6256 8.71222 25.2808 9.07115C24.9359 9.43008 24.7433 9.90853 24.7433 10.4063C24.7433 10.904 24.9359 11.3825 25.2808 11.7414C25.6256 12.1003 26.096 12.3119 26.5933 12.3318C27.1044 12.3318 27.5946 12.1288 27.956 11.7674C28.3174 11.406 28.5204 10.9158 28.5204 10.4047C28.5204 9.89364 28.3174 9.40348 27.956 9.04208C27.5946 8.68069 27.1044 8.47765 26.5933 8.47765V8.48074Z" fill="#408C40"/>
</svg>
