<svg width="20" height="20" viewBox="0 0 20 20" fill="none" xmlns="http://www.w3.org/2000/svg">
<path d="M8.78125 18.8335L8.24316 19.6765L8.2549 19.6838L8.78125 18.8335ZM9.44133 4.75191L8.56241 5.22889L9.43425 6.83542L10.317 5.23485L9.44133 4.75191ZM10.1106 18.8335L10.6193 19.6945L10.6345 19.6855L10.6493 19.676L10.1106 18.8335ZM9.44133 18.0811C9.47195 18.0811 9.49421 18.0836 9.50635 18.0853C9.51877 18.087 9.52534 18.0887 9.52541 18.0887C9.52566 18.0888 9.52202 18.0879 9.51433 18.0853C9.50675 18.0828 9.49669 18.0792 9.48425 18.0742C9.42968 18.0522 9.36412 18.0183 9.3076 17.9833L8.2549 19.6838C8.3909 19.768 8.55912 19.8578 8.73833 19.9299C8.89841 19.9942 9.15551 20.0811 9.44133 20.0811V18.0811ZM9.31929 17.9906C4.19357 14.7189 1.33777 11.138 1.33777 7.78643H-0.662229C-0.662229 12.2458 3.02773 16.3474 8.24321 19.6765L9.31929 17.9906ZM1.33777 7.78643C1.33777 5.03081 3.17834 3.24912 5.4442 3.24912V1.24912C1.95272 1.24912 -0.662229 4.0513 -0.662229 7.78643H1.33777ZM5.4442 3.24912C6.80619 3.24912 7.89132 3.99228 8.56241 5.22889L10.3202 4.27494C9.35948 2.50453 7.65762 1.24912 5.4442 1.24912V3.24912ZM10.317 5.23485C11.0087 3.9806 12.0793 3.24912 13.4385 3.24912V1.24912C11.2222 1.24912 9.54246 2.49787 8.56567 4.26898L10.317 5.23485ZM13.4385 3.24912C15.7043 3.24912 17.5449 5.03081 17.5449 7.78643H19.5449C19.5449 4.0513 16.9299 1.24912 13.4385 1.24912V3.24912ZM17.5449 7.78643C17.5449 11.1384 14.6887 14.7192 9.57186 17.9911L10.6493 19.676C15.8553 16.3471 19.5449 12.2454 19.5449 7.78643H17.5449ZM9.60184 17.9726C9.53271 18.0135 9.46069 18.0498 9.40268 18.0729C9.38933 18.0782 9.37855 18.0821 9.37038 18.0848C9.36637 18.0861 9.36328 18.0871 9.3611 18.0877C9.35891 18.0883 9.35788 18.0886 9.35797 18.0886C9.35805 18.0886 9.35958 18.0882 9.36248 18.0876C9.36537 18.087 9.37005 18.0862 9.37642 18.0853C9.38846 18.0836 9.4107 18.0811 9.44133 18.0811V20.0811C9.72696 20.0811 9.98391 19.9942 10.1423 19.9311C10.3204 19.8602 10.4867 19.7728 10.6193 19.6945L9.60184 17.9726Z" fill="#98A2B3"/>
</svg>
