<svg width="26" height="26" viewBox="0 0 26 26" fill="none" xmlns="http://www.w3.org/2000/svg">
<path d="M4.95996 9.74219C4.95996 5.01562 8.80566 1.15918 13.5 1.15918C18.1836 1.15918 22.0508 5.01562 22.04 9.74219C22.0293 12.2559 20.9229 14.5332 19.1826 16.0908V24.2334C19.1826 24.8779 18.8604 25.1465 18.3984 25.1465C18.0439 25.1465 17.7539 24.9424 17.4531 24.6416L13.9619 21.1611C13.7793 20.9893 13.6396 20.9248 13.5107 20.9248C13.3818 20.9248 13.2529 20.9893 13.0596 21.1611L9.56836 24.6416C9.27832 24.9316 8.99902 25.1465 8.62305 25.1465C8.18262 25.1465 7.84961 24.8779 7.84961 24.2334L7.83887 16.123C6.07715 14.5547 4.95996 12.2666 4.95996 9.74219ZM6.71094 9.74219C6.71094 13.5449 9.68652 16.585 13.5107 16.5957C17.3242 16.6064 20.3213 13.5449 20.3105 9.74219C20.2998 5.92871 17.3242 2.86719 13.5107 2.86719C9.68652 2.86719 6.71094 5.92871 6.71094 9.74219Z" fill="#5A5A5A"/>
</svg>
