<svg width="37" height="38" viewBox="0 0 37 38" fill="none" xmlns="http://www.w3.org/2000/svg">
<path d="M18.5 35.9844C23.5421 35.9844 27.6594 28.53 27.6594 18.5364C27.6594 8.48826 23.5604 1.03383 18.5 1.03383C13.4397 1.03383 9.34071 8.48826 9.34071 18.5364C9.34071 28.53 13.4579 35.9844 18.5 35.9844ZM18.5 3.22844C22.0549 3.22844 25.229 10.302 25.229 18.5364C25.229 26.6255 22.0549 33.7716 18.5 33.7716C14.9451 33.7716 11.7711 26.6255 11.7711 18.5364C11.7711 10.302 14.9451 3.22844 18.5 3.22844ZM18.5091 1.28775C17.853 1.28775 17.3211 1.81964 17.3211 2.47577V34.4517C17.3211 35.1078 17.853 35.6397 18.5091 35.6397C19.1653 35.6397 19.6972 35.1078 19.6972 34.4517V2.47578C19.6972 1.81965 19.1653 1.28775 18.5091 1.28775ZM18.5 25.3197C13.6314 25.3197 9.24487 26.4356 6.51727 28.2712C5.90714 28.6818 5.93007 29.5451 6.49824 30.0121C6.93958 30.3748 7.57047 30.3736 8.05234 30.0668C10.4736 28.5251 14.0648 27.6956 18.5 27.6956C22.9352 27.6956 26.5265 28.5251 28.9478 30.0668C29.4297 30.3736 30.0606 30.3748 30.5019 30.0121C31.07 29.5451 31.0929 28.6818 30.4828 28.2712C27.7553 26.4356 23.3688 25.3197 18.5 25.3197ZM35.2407 18.4909C35.2407 17.8349 34.7089 17.303 34.0528 17.303H2.94727C2.29118 17.303 1.75932 17.8349 1.75932 18.4909C1.75932 19.147 2.29118 19.6789 2.94727 19.6789H34.0528C34.7089 19.6789 35.2407 19.147 35.2407 18.4909ZM18.5 11.7711C23.3674 11.7711 27.7529 10.6558 30.4806 8.82104C31.092 8.4098 31.069 7.5448 30.4997 7.07697C30.0592 6.71491 29.4298 6.71449 28.9479 7.01934C26.5266 8.55104 22.9353 9.39511 18.5 9.39511C14.0647 9.39511 10.4735 8.55104 8.05221 7.01934C7.57031 6.71449 6.94094 6.7149 6.50038 7.07695C5.93108 7.54478 5.90809 8.40984 6.51952 8.82109C9.24729 10.6558 13.6327 11.7711 18.5 11.7711ZM18.5 37C28.6207 37 37 28.6026 37 18.5C37 8.37943 28.6026 0 18.4819 0C8.37943 0 0 8.37943 0 18.5C0 28.6026 8.39756 37 18.5 37ZM18.5 34.5334C9.73973 34.5334 2.46667 27.2604 2.46667 18.5C2.46667 9.73973 9.72159 2.46667 18.4819 2.46667C27.2423 2.46667 34.5334 9.73973 34.5334 18.5C34.5334 27.2604 27.2604 34.5334 18.5 34.5334Z" fill="#408C40"/>
</svg>
