<svg width="20" height="26" viewBox="0 0 20 26" fill="none" xmlns="http://www.w3.org/2000/svg">
<path d="M9.05664 25.4754C2.11225 14.7789 0.823242 13.6811 0.823242 9.75C0.823242 4.36521 4.93167 0 9.99971 0C15.0678 0 19.1762 4.36521 19.1762 9.75C19.1762 13.6811 17.8872 14.7789 10.9428 25.4754C10.4871 26.1749 9.51231 26.1748 9.05664 25.4754ZM9.99971 13.8125C12.1114 13.8125 13.8232 11.9937 13.8232 9.75C13.8232 7.50633 12.1114 5.6875 9.99971 5.6875C7.88803 5.6875 6.17618 7.50633 6.17618 9.75C6.17618 11.9937 7.88803 13.8125 9.99971 13.8125Z" fill="#408C40"/>
</svg>
