<svg width="38" height="38" viewBox="0 0 38 38" fill="none" xmlns="http://www.w3.org/2000/svg">
<path d="M29.0191 35.6253C27.5703 35.6253 25.5352 35.1013 22.4878 33.3987C18.7821 31.3206 15.9158 29.402 12.2301 25.726C8.67646 22.1746 6.94717 19.8753 4.52689 15.4712C1.79267 10.4985 2.25877 7.89197 2.77978 6.77794C3.40025 5.44646 4.31611 4.65009 5.4999 3.85966C6.17228 3.41913 6.88383 3.04149 7.62552 2.73154C7.69974 2.69962 7.76877 2.66919 7.83037 2.64173C8.19775 2.47623 8.75439 2.22611 9.45947 2.4933C9.93002 2.66994 10.3501 3.03138 11.0077 3.6808C12.3562 5.0108 14.1991 7.97287 14.8789 9.42755C15.3354 10.408 15.6374 11.0552 15.6382 11.781C15.6382 12.6308 15.2107 13.2862 14.6919 13.9935C14.5947 14.1263 14.4982 14.2533 14.4047 14.3765C13.8399 15.1186 13.7159 15.3331 13.7976 15.7161C13.9631 16.4858 15.1973 18.7769 17.2257 20.8008C19.2541 22.8248 21.4792 23.9811 22.2518 24.1459C22.6511 24.2312 22.8701 24.1021 23.636 23.5172C23.7458 23.4334 23.8586 23.3465 23.9767 23.2597C24.7678 22.6711 25.3928 22.2548 26.2225 22.2548H26.227C26.9491 22.2548 27.5674 22.568 28.5916 23.0845C29.9275 23.7585 32.9786 25.5776 34.3168 26.9276C34.9677 27.5837 35.3306 28.0023 35.508 28.4721C35.7752 29.1794 35.5236 29.7338 35.3596 30.1049C35.3321 30.1665 35.3017 30.234 35.2698 30.309C34.9574 31.0494 34.5775 31.7594 34.135 32.4302C33.346 33.6103 32.5467 34.5239 31.2122 35.1451C30.527 35.4692 29.7771 35.6334 29.0191 35.6253Z" fill="#408C40"/>
</svg>
