<svg width="20" height="21" viewBox="0 0 20 21" fill="none" xmlns="http://www.w3.org/2000/svg">
<path d="M0.246094 8.7207C0.246094 4.25781 3.85938 0.64453 8.3125 0.64453C12.7656 0.64453 16.3789 4.25781 16.3789 8.7207C16.3789 10.3809 15.8711 11.9141 14.9922 13.1738L19.2012 17.4023C19.5137 17.7148 19.6797 18.1348 19.6797 18.584C19.6797 19.5215 18.9766 20.2539 18.0195 20.2539C17.5703 20.2539 17.1406 20.0977 16.8184 19.7754L12.5703 15.5273C11.3496 16.3184 9.89453 16.7871 8.3125 16.7871C3.85938 16.7871 0.246094 13.1738 0.246094 8.7207ZM2.62891 8.7207C2.62891 11.8555 5.16797 14.4043 8.3125 14.4043C11.457 14.4043 14.0059 11.8555 14.0059 8.7207C14.0059 5.57617 11.457 3.02734 8.3125 3.02734C5.16797 3.02734 2.62891 5.57617 2.62891 8.7207Z" fill="#408C40"/>
<path d="M14.9922 13.1738L14.5821 12.8877L14.343 13.2304L14.6378 13.5266L14.9922 13.1738ZM19.2012 17.4023L18.8468 17.7551L18.8476 17.7559L19.2012 17.4023ZM12.5703 15.5273L12.9239 15.1738L12.6379 14.8878L12.2984 15.1077L12.5703 15.5273ZM0.746094 8.7207C0.746094 4.53356 4.13591 1.14453 8.3125 1.14453V0.14453C3.58284 0.14453 -0.253906 3.98206 -0.253906 8.7207H0.746094ZM8.3125 1.14453C12.4891 1.14453 15.8789 4.53356 15.8789 8.7207H16.8789C16.8789 3.98206 13.0422 0.14453 8.3125 0.14453V1.14453ZM15.8789 8.7207C15.8789 10.2772 15.4033 11.7108 14.5821 12.8877L15.4023 13.4599C16.3389 12.1173 16.8789 10.4845 16.8789 8.7207H15.8789ZM14.6378 13.5266L18.8468 17.7551L19.5555 17.0496L15.3466 12.8211L14.6378 13.5266ZM18.8476 17.7559C19.0613 17.9695 19.1797 18.26 19.1797 18.584H20.1797C20.1797 18.0095 19.9661 17.4601 19.5547 17.0488L18.8476 17.7559ZM19.1797 18.584C19.1797 19.2531 18.6927 19.7539 18.0195 19.7539V20.7539C19.2604 20.7539 20.1797 19.7899 20.1797 18.584H19.1797ZM18.0195 19.7539C17.687 19.7539 17.3897 19.6396 17.1719 19.4218L16.4648 20.1289C16.8915 20.5557 17.4536 20.7539 18.0195 20.7539V19.7539ZM17.1719 19.4218L12.9239 15.1738L12.2168 15.8809L16.4648 20.1289L17.1719 19.4218ZM12.2984 15.1077C11.155 15.8487 9.79369 16.2871 8.3125 16.2871V17.2871C9.99537 17.2871 11.5443 16.788 12.8422 15.9469L12.2984 15.1077ZM8.3125 16.2871C4.13552 16.2871 0.746094 12.8977 0.746094 8.7207H-0.253906C-0.253906 13.45 3.58323 17.2871 8.3125 17.2871V16.2871ZM2.12891 8.7207C2.12891 12.1311 4.89127 14.9043 8.3125 14.9043V13.9043C5.44467 13.9043 3.12891 11.5799 3.12891 8.7207H2.12891ZM8.3125 14.9043C11.7326 14.9043 14.5059 12.1322 14.5059 8.7207H13.5059C13.5059 11.5788 11.1814 13.9043 8.3125 13.9043V14.9043ZM14.5059 8.7207C14.5059 5.30003 11.7332 2.52734 8.3125 2.52734V3.52734C11.1809 3.52734 13.5059 5.85231 13.5059 8.7207H14.5059ZM8.3125 2.52734C4.89071 2.52734 2.12891 5.30115 2.12891 8.7207H3.12891C3.12891 5.85119 5.44523 3.52734 8.3125 3.52734V2.52734Z" fill="#408C40"/>
</svg>
