<svg width="24" height="23" viewBox="0 0 24 23" fill="none" xmlns="http://www.w3.org/2000/svg">
<path d="M24 11.0771C24 11.4979 23.8317 11.8736 23.4952 12.2042C23.1587 12.5273 22.7087 12.7865 22.1454 12.9819C21.5894 13.1697 20.9749 13.2636 20.3018 13.2636H15.9671C15.6744 13.2636 15.4513 13.2974 15.2977 13.3651C15.144 13.4252 14.9794 13.5567 14.8038 13.7595L7.73663 21.6827C7.50983 21.9457 7.2428 22.0771 6.93553 22.0771H5.71742C5.57842 22.0771 5.47599 22.0208 5.41015 21.9081C5.34431 21.8029 5.34797 21.6752 5.42112 21.5249L9.0535 13.2636L3.52263 12.6437L1.61317 16.2278C1.47417 16.4757 1.24371 16.5997 0.921811 16.5997H0.438957C0.30727 16.5997 0.201189 16.5621 0.120713 16.487C0.0402378 16.4043 0 16.2916 0 16.1489V6.00543C0 5.85515 0.0402378 5.74245 0.120713 5.66731C0.201189 5.58466 0.30727 5.54334 0.438957 5.54334H0.921811C1.24371 5.54334 1.47417 5.67107 1.61317 5.92653L3.52263 9.51055L9.0535 8.89067L5.42112 0.629403C5.34797 0.479129 5.34431 0.351397 5.41015 0.246206C5.47599 0.133501 5.57842 0.0771484 5.71742 0.0771484H6.93553C7.2428 0.0771484 7.50983 0.208638 7.73663 0.471616L14.8038 8.3835C14.9794 8.58637 15.144 8.72162 15.2977 8.78924C15.4513 8.85686 15.6744 8.89067 15.9671 8.89067H20.3018C20.9749 8.89067 21.5894 8.98835 22.1454 9.18371C22.7087 9.37155 23.1587 9.63077 23.4952 9.96137C23.8317 10.2845 24 10.6564 24 11.0771Z" fill="#EE983A"/>
</svg>
