<svg width="11" height="15" viewBox="0 0 11 15" fill="none" xmlns="http://www.w3.org/2000/svg">
<path d="M4.73763 14.6974C0.741716 8.5263 0 7.89296 0 5.625C0 2.51839 2.36406 0 5.28029 0C8.19652 0 10.5606 2.51839 10.5606 5.625C10.5606 7.89296 9.81886 8.5263 5.82295 14.6974C5.56072 15.1009 4.99983 15.1009 4.73763 14.6974ZM5.28029 7.96875C6.49539 7.96875 7.48041 6.91942 7.48041 5.625C7.48041 4.33057 6.49539 3.28125 5.28029 3.28125C4.06519 3.28125 3.08017 4.33057 3.08017 5.625C3.08017 6.91942 4.06519 7.96875 5.28029 7.96875Z" fill="white"/>
</svg>
