<svg width="28" height="31" viewBox="0 0 28 31" fill="none" xmlns="http://www.w3.org/2000/svg">
<path d="M1.76101 23.2233V3.38191C1.76101 2.55036 1.98742 1.89884 2.44025 1.42734C2.90147 0.955845 3.55975 0.668662 4.41509 0.56579C5.72327 0.411482 7.21174 0.291465 8.8805 0.205738C10.5577 0.120012 12.2642 0.0771484 14 0.0771484C15.7275 0.0771484 17.4298 0.120012 19.1069 0.205738C20.7841 0.291465 22.2767 0.411482 23.5849 0.56579C24.4403 0.668662 25.0985 0.955845 25.5597 1.42734C26.021 1.89884 26.2516 2.55036 26.2516 3.38191V23.2233C26.2516 24.012 26.0377 24.6464 25.6101 25.1264V28.3798C25.6101 28.8513 25.4465 29.2499 25.1195 29.5756C24.8008 29.91 24.4067 30.0771 23.9371 30.0771H22.4528C21.9832 30.0771 21.5891 29.9143 21.2704 29.5885C20.9518 29.2627 20.7925 28.8598 20.7925 28.3798V26.3095C19.7526 26.378 18.6625 26.4295 17.522 26.4638C16.3899 26.5066 15.2159 26.5281 14 26.5281C12.7841 26.5281 11.6059 26.5066 10.4654 26.4638C9.33333 26.4295 8.25157 26.378 7.22013 26.3095V28.3798C7.22013 28.8598 7.0566 29.2627 6.72956 29.5885C6.4109 29.9143 6.01677 30.0771 5.54717 30.0771H4.06289C3.59329 30.0771 3.19916 29.91 2.8805 29.5756C2.56184 29.2499 2.40252 28.8513 2.40252 28.3798V25.1264C1.97484 24.6464 1.76101 24.012 1.76101 23.2233ZM14 24.8435C15.8281 24.8435 17.5136 24.805 19.0566 24.7278C20.608 24.6507 21.9706 24.5392 23.1447 24.3935C23.6813 24.3249 24.0587 24.1534 24.2767 23.8791C24.4948 23.5962 24.6038 23.2062 24.6038 22.709V3.89627C24.6038 3.39905 24.4948 3.01328 24.2767 2.73896C24.0587 2.45606 23.6813 2.28032 23.1447 2.21174C21.9958 2.066 20.6205 1.95456 19.0189 1.87741C17.4256 1.80025 15.7526 1.76167 14 1.76167C12.2306 1.76167 10.5451 1.80025 8.9434 1.87741C7.3501 1.95456 5.98742 2.066 4.85535 2.21174C4.38574 2.27175 4.02516 2.44749 3.77358 2.73896C3.5304 3.02185 3.40881 3.40762 3.40881 3.89627V22.709C3.40881 23.2062 3.51363 23.5962 3.72327 23.8791C3.9413 24.1534 4.31866 24.3249 4.85535 24.3935C6.01258 24.5392 7.36268 24.6507 8.90566 24.7278C10.4486 24.805 12.1468 24.8435 14 24.8435ZM5.86164 17.6297C5.08176 17.5011 4.69182 17.0167 4.69182 16.1766V5.11787C4.69182 4.15773 5.14046 3.63051 6.03774 3.53621C7.28721 3.40762 8.58281 3.31333 9.92453 3.25332C11.2746 3.19331 12.6373 3.1633 14.0126 3.1633C15.3962 3.15473 16.7589 3.18474 18.1006 3.25332C19.4507 3.31333 20.7463 3.40762 21.9874 3.53621C22.8763 3.63051 23.3208 4.15773 23.3208 5.11787V16.1766C23.3208 17.0167 22.9308 17.5011 22.1509 17.6297C20.9182 17.8268 19.6059 17.9768 18.2138 18.0797C16.8302 18.174 15.4214 18.2212 13.9874 18.2212C12.5618 18.2212 11.1572 18.174 9.77359 18.0797C8.38994 17.9768 7.08595 17.8268 5.86164 17.6297ZM2.57862 12.3703H1.19497C0.842767 12.3703 0.553459 12.2717 0.327044 12.0746C0.109015 11.8688 0 11.5945 0 11.2516V5.96656C0 5.62366 0.109015 5.34933 0.327044 5.14359C0.553459 4.93784 0.842767 4.83497 1.19497 4.83497H2.57862V12.3703ZM25.4214 12.3703V4.83497H26.805C27.1572 4.83497 27.4423 4.93784 27.6604 5.14359C27.8868 5.34933 28 5.62366 28 5.96656V11.2516C28 11.5945 27.8868 11.8688 27.6604 12.0746C27.4423 12.2717 27.1572 12.3703 26.805 12.3703H25.4214ZM6.81761 22.8504C6.38155 22.8504 6.01677 22.7004 5.72327 22.4003C5.43816 22.1003 5.2956 21.7317 5.2956 21.2945C5.2956 20.8487 5.43816 20.4801 5.72327 20.1886C6.01677 19.8885 6.38155 19.7385 6.81761 19.7385C7.24528 19.7385 7.60587 19.8885 7.89937 20.1886C8.19287 20.4801 8.33962 20.8487 8.33962 21.2945C8.33962 21.7317 8.19287 22.1003 7.89937 22.4003C7.60587 22.7004 7.24528 22.8504 6.81761 22.8504ZM11.0063 22.3875C10.6792 22.3875 10.4109 22.2846 10.2013 22.0789C10 21.8645 9.89937 21.5945 9.89937 21.2687C9.89937 20.9344 10 20.6644 10.2013 20.4586C10.4109 20.2529 10.6792 20.15 11.0063 20.15H16.9811C17.2998 20.15 17.5597 20.2529 17.761 20.4586C17.9706 20.6644 18.0755 20.9344 18.0755 21.2687C18.0755 21.5945 17.9706 21.8645 17.761 22.0789C17.5597 22.2846 17.2998 22.3875 16.9811 22.3875H11.0063ZM21.1824 22.8504C20.7547 22.8504 20.3941 22.7004 20.1006 22.4003C19.8155 22.1003 19.673 21.7317 19.673 21.2945C19.673 20.8487 19.8155 20.4801 20.1006 20.1886C20.3941 19.8885 20.7547 19.7385 21.1824 19.7385C21.6184 19.7385 21.9832 19.8885 22.2767 20.1886C22.5702 20.4801 22.717 20.8487 22.717 21.2945C22.717 21.7317 22.5702 22.1003 22.2767 22.4003C21.9832 22.7004 21.6184 22.8504 21.1824 22.8504Z" fill="#5A5A5A"/>
</svg>
