<svg width="28" height="19" viewBox="0 0 28 19" fill="none" xmlns="http://www.w3.org/2000/svg">
<path d="M2.57812 6.10645V3.02344C2.57812 1.03613 3.6416 0.015625 5.5752 0.015625H21.6562C23.5898 0.015625 24.6641 1.03613 24.6641 3.02344V6.10645H21.9248V4.55957C21.9248 3.56055 21.3662 3.0127 20.292 3.0127H16.5322C15.458 3.0127 14.8994 3.56055 14.8994 4.55957V6.10645H12.4609V4.55957C12.4609 3.56055 11.9023 3.0127 10.8926 3.0127H6.88574C5.86523 3.0127 5.30664 3.56055 5.30664 4.55957V6.10645H2.57812ZM0 17.2246V10.8223C0 8.77051 1.13867 7.64258 3.19043 7.64258H24.0303C26.082 7.64258 27.2207 8.77051 27.2207 10.8223V17.2246C27.2207 17.7832 26.8662 18.1377 26.3076 18.1377H25.6631C25.1152 18.1377 24.75 17.7832 24.75 17.2246V15.6348C24.6318 15.667 24.2773 15.6885 24.0195 15.6885H3.20117C2.94336 15.6885 2.58887 15.667 2.4707 15.6348V17.2246C2.4707 17.7832 2.10547 18.1377 1.55762 18.1377H0.913086C0.354492 18.1377 0 17.7832 0 17.2246Z" fill="#7E4E75"/>
</svg>
