<svg width="25" height="20" viewBox="0 0 25 20" fill="none" xmlns="http://www.w3.org/2000/svg">
<path d="M0 18.1451V11.303C0 10.7294 0.0352212 10.2207 0.105664 9.77685C0.176106 9.33301 0.306424 8.91989 0.496619 8.5375C0.693857 8.15511 0.975627 7.77272 1.34193 7.39033L2.39856 6.27389L3.50803 3.19087C3.81093 2.35098 4.24415 1.73642 4.80769 1.34721C5.37123 0.957987 6.0193 0.722407 6.7519 0.640467C6.98436 0.613153 7.37884 0.589254 7.93533 0.568768C8.49887 0.548283 9.1716 0.531212 9.95351 0.517555C10.7425 0.503899 11.5913 0.49707 12.5 0.49707C13.4087 0.49707 14.254 0.503899 15.0359 0.517555C15.8249 0.531212 16.4976 0.548283 17.0541 0.568768C17.6176 0.589254 18.0192 0.613153 18.2587 0.640467C18.9913 0.722407 19.6358 0.957987 20.1923 1.34721C20.7558 1.73642 21.1891 2.35098 21.492 3.19087L22.6014 6.27389L23.6686 7.39033C24.0349 7.77272 24.3132 8.15511 24.5034 8.5375C24.6936 8.91989 24.8239 9.33301 24.8943 9.77685C24.9648 10.2207 25 10.7294 25 11.303V18.1451C25 18.5274 24.8662 18.8484 24.5985 19.1079C24.3308 19.3673 23.9997 19.4971 23.6052 19.4971H22.3584C21.9639 19.4971 21.6329 19.3673 21.3652 19.1079C21.0975 18.8484 20.9637 18.5274 20.9637 18.1451V16.6599H4.04691V18.1451C4.04691 18.5274 3.90955 18.8484 3.63483 19.1079C3.36715 19.3673 3.03607 19.4971 2.64159 19.4971H1.40533C1.0038 19.4971 0.669203 19.3673 0.401522 19.1079C0.133841 18.8484 0 18.5274 0 18.1451ZM5.30431 6.3251H19.6957C19.9493 6.3251 20.1219 6.24658 20.2134 6.08952C20.305 5.93247 20.3085 5.74128 20.224 5.51594L19.5583 3.60057C19.4386 3.25233 19.2766 3.0065 19.0723 2.86311C18.868 2.71971 18.6074 2.62753 18.2904 2.58656C17.9241 2.53876 17.2443 2.49779 16.2511 2.46365C15.2578 2.42951 14.0075 2.41243 12.5 2.41243C10.9925 2.41243 9.73866 2.42951 8.73838 2.46365C7.74514 2.49779 7.06537 2.53876 6.69907 2.58656C6.38208 2.62753 6.12144 2.71971 5.91716 2.86311C5.71288 3.0065 5.55086 3.25233 5.43111 3.60057L4.77599 5.51594C4.69851 5.74128 4.70203 5.93247 4.78656 6.08952C4.87109 6.24658 5.04367 6.3251 5.30431 6.3251ZM3.82502 12.7267C4.14906 12.7267 4.41674 12.6243 4.62806 12.4194C4.83939 12.2146 4.94505 11.9551 4.94505 11.641V10.0432C4.94505 9.72223 4.83939 9.46275 4.62806 9.26473C4.41674 9.0667 4.14906 8.96769 3.82502 8.96769C3.50099 8.96769 3.22978 9.07012 3.01141 9.27497C2.80008 9.47299 2.69442 9.72906 2.69442 10.0432V11.641C2.69442 11.9551 2.80008 12.2146 3.01141 12.4194C3.22978 12.6243 3.50099 12.7267 3.82502 12.7267ZM10.1014 12.2351H14.8669C15.1275 12.2351 15.3388 12.1565 15.5008 11.9995C15.6629 11.8424 15.7439 11.6273 15.7439 11.3542V10.3197C15.7439 10.0534 15.6629 9.84514 15.5008 9.69491C15.3388 9.53786 15.1275 9.45933 14.8669 9.45933H10.1014C9.8408 9.45933 9.62947 9.53786 9.46745 9.69491C9.31248 9.84514 9.23499 10.0534 9.23499 10.3197V11.3542C9.23499 11.6273 9.31248 11.8424 9.46745 11.9995C9.62947 12.1565 9.8408 12.2351 10.1014 12.2351ZM21.2806 12.7267C21.6117 12.7267 21.8829 12.6243 22.0943 12.4194C22.3056 12.2146 22.4112 11.9551 22.4112 11.641V10.0432C22.4112 9.72223 22.3056 9.46275 22.0943 9.26473C21.8829 9.0667 21.6117 8.96769 21.2806 8.96769C20.9637 8.96769 20.696 9.07012 20.4776 9.27497C20.2663 9.47299 20.1606 9.72906 20.1606 10.0432V11.641C20.1606 11.9483 20.2663 12.2078 20.4776 12.4194C20.696 12.6243 20.9637 12.7267 21.2806 12.7267Z" fill="#5A5A5A"/>
</svg>
