<svg width="17" height="32" viewBox="0 0 17 32" fill="none" xmlns="http://www.w3.org/2000/svg">
<path d="M2.09501 30.609C1.85307 30.934 1.57657 31.0965 1.26551 31.0965C0.954451 31.106 0.677953 31.0009 0.436017 30.781C0.202721 30.5612 0.0601517 30.2744 0.00830824 29.9207C-0.0348946 29.5765 0.0903937 29.2085 0.384173 28.8166L4.12986 23.8983L4.77791 20.6434L6.77388 23.4251L6.47578 24.4862C6.39801 24.7443 6.32457 24.9355 6.25544 25.0598C6.19496 25.184 6.07399 25.3657 5.89254 25.6046L2.09501 30.609ZM11.375 30.1931L8.73097 24.2711C8.67912 24.1564 8.6316 24.0513 8.5884 23.9557C8.55384 23.8505 8.47175 23.7119 8.34214 23.5398L5.77589 19.9838C5.30066 19.3242 4.97232 18.7506 4.79087 18.2631C4.60941 17.7756 4.54893 17.1494 4.60941 16.3847L4.81679 13.3161C4.82543 13.1154 4.7347 12.9768 4.54461 12.9003C4.36316 12.8238 4.18603 12.8668 4.01321 13.0293L3.08003 13.9614L2.79489 17.5891C2.76897 18.0289 2.65232 18.3587 2.44495 18.5785C2.24622 18.7984 1.96972 18.894 1.61546 18.8653C1.27847 18.8558 1.01494 18.7219 0.824843 18.4638C0.63475 18.1962 0.556985 17.8568 0.591547 17.4458L0.811882 14.1335C0.846444 13.6746 0.92853 13.2922 1.05814 12.9863C1.18775 12.6709 1.40376 12.3459 1.70618 12.0113L3.63735 9.88911C4.25083 9.22952 4.81247 8.72287 5.32226 8.36918C5.83206 8.01548 6.41962 7.83863 7.08494 7.83863C7.95764 7.83863 8.6316 8.15887 9.10683 8.79935C9.59071 9.43026 9.8024 10.2237 9.74192 11.1796L9.4827 15.2232C9.4395 15.9402 9.36605 16.5615 9.26236 17.0873C9.15868 17.613 9.00315 18.2392 8.79577 18.9657L8.67912 19.3672L10.3122 21.9339C10.4332 22.125 10.5584 22.3354 10.6881 22.5648C10.8177 22.7846 10.93 22.9997 11.025 23.21L13.6043 28.9886C13.8116 29.4571 13.8505 29.8585 13.7209 30.1931C13.5999 30.5373 13.3882 30.781 13.0858 30.9244C12.792 31.0774 12.481 31.1013 12.1526 30.9961C11.8243 30.891 11.5651 30.6233 11.375 30.1931ZM15.7558 13.2875C16.1273 13.2875 16.4254 13.4022 16.6501 13.6316C16.8834 13.861 17 14.1573 17 14.5206C17 14.903 16.8834 15.2041 16.6501 15.424C16.4254 15.6438 16.1273 15.7538 15.7558 15.7538H13.034C12.6624 15.7538 12.3687 15.7155 12.1526 15.639C11.9453 15.553 11.7422 15.4001 11.5435 15.1802L10.714 14.2625L10.9214 10.9502L12.8266 13.2875H15.7558ZM8.48471 6.54812C7.96628 6.54812 7.49969 6.41429 7.08494 6.14663C6.67883 5.86941 6.35049 5.50138 6.09991 5.04253C5.85798 4.58368 5.73701 4.07704 5.73701 3.5226C5.73701 2.9586 5.85798 2.44717 6.09991 1.98833C6.35049 1.52948 6.67883 1.16622 7.08494 0.898562C7.49969 0.630901 7.96628 0.49707 8.48471 0.49707C8.98587 0.49707 9.4395 0.630901 9.8456 0.898562C10.2604 1.16622 10.5887 1.52948 10.8306 1.98833C11.0812 2.44717 11.2065 2.9586 11.2065 3.5226C11.2065 4.07704 11.0812 4.58368 10.8306 5.04253C10.5887 5.50138 10.2604 5.86941 9.8456 6.14663C9.4395 6.41429 8.98587 6.54812 8.48471 6.54812Z" fill="#5A5A5A"/>
</svg>
