<svg width="21" height="21" viewBox="0 0 21 21" fill="none" xmlns="http://www.w3.org/2000/svg">
<path d="M11.4413 20.0811C11.2488 20.0811 10.9738 19.9527 10.7812 19.8335C5.61065 16.5332 2.33777 12.6919 2.33777 8.78643C2.33777 5.54106 4.56553 3.24912 7.4442 3.24912C9.2319 3.24912 10.6254 4.24841 11.4413 5.75191C12.2756 4.23924 13.6507 3.24912 15.4385 3.24912C18.3171 3.24912 20.5449 5.54106 20.5449 8.78643C20.5449 12.6919 17.272 16.5332 12.1106 19.8335C11.9089 19.9527 11.6338 20.0811 11.4413 20.0811Z" fill="#408C40"/>
<path d="M10.7812 19.8335L10.2432 20.6765L10.2549 20.6838L10.7812 19.8335ZM11.4413 5.75191L10.5624 6.22889L11.4342 7.83542L12.317 6.23485L11.4413 5.75191ZM12.1106 19.8335L12.6193 20.6945L12.6345 20.6855L12.6493 20.676L12.1106 19.8335ZM11.4413 19.0811C11.4719 19.0811 11.4942 19.0836 11.5063 19.0853C11.5188 19.087 11.5253 19.0887 11.5254 19.0887C11.5257 19.0888 11.522 19.0879 11.5143 19.0853C11.5068 19.0828 11.4967 19.0792 11.4842 19.0742C11.4297 19.0522 11.3641 19.0183 11.3076 18.9833L10.2549 20.6838C10.3909 20.768 10.5591 20.8578 10.7383 20.9299C10.8984 20.9942 11.1555 21.0811 11.4413 21.0811V19.0811ZM11.3193 18.9906C6.19357 15.7189 3.33777 12.138 3.33777 8.78643H1.33777C1.33777 13.2458 5.02773 17.3474 10.2432 20.6765L11.3193 18.9906ZM3.33777 8.78643C3.33777 6.03081 5.17834 4.24912 7.4442 4.24912V2.24912C3.95272 2.24912 1.33777 5.0513 1.33777 8.78643H3.33777ZM7.4442 4.24912C8.80618 4.24912 9.89132 4.99228 10.5624 6.22889L12.3202 5.27494C11.3595 3.50453 9.65762 2.24912 7.4442 2.24912V4.24912ZM12.317 6.23485C13.0087 4.9806 14.0793 4.24912 15.4385 4.24912V2.24912C13.2222 2.24912 11.5425 3.49788 10.5657 5.26898L12.317 6.23485ZM15.4385 4.24912C17.7043 4.24912 19.5449 6.03081 19.5449 8.78643H21.5449C21.5449 5.0513 18.9299 2.24912 15.4385 2.24912V4.24912ZM19.5449 8.78643C19.5449 12.1384 16.6887 15.7192 11.5719 18.9911L12.6493 20.676C17.8553 17.3471 21.5449 13.2454 21.5449 8.78643H19.5449ZM11.6018 18.9726C11.5327 19.0135 11.4607 19.0498 11.4027 19.0729C11.3893 19.0782 11.3785 19.0821 11.3704 19.0848C11.3664 19.0861 11.3633 19.0871 11.3611 19.0877C11.3589 19.0883 11.3579 19.0886 11.358 19.0886C11.358 19.0886 11.3596 19.0882 11.3625 19.0876C11.3654 19.087 11.3701 19.0862 11.3764 19.0853C11.3885 19.0836 11.4107 19.0811 11.4413 19.0811V21.0811C11.727 21.0811 11.9839 20.9942 12.1423 20.9311C12.3204 20.8602 12.4867 20.7728 12.6193 20.6945L11.6018 18.9726Z" fill="#408C40"/>
</svg>
