<svg width="28" height="20" viewBox="0 0 28 20" fill="none" xmlns="http://www.w3.org/2000/svg">
<path fill-rule="evenodd" clip-rule="evenodd" d="M7.05437 16.8496C8.07952 16.8496 8.91059 16.0186 8.91059 14.9934C8.91059 14.577 8.77338 14.1925 8.54179 13.8828C10.2442 13.8951 10.8303 13.9569 11.0321 14.268C11.138 14.4314 11.138 14.6635 11.138 14.9932C11.138 17.2486 9.30975 19.0769 7.05437 19.0769C4.799 19.0769 2.9707 17.2486 2.9707 14.9932C2.9707 14.0358 2.9707 13.9016 5.56695 13.8828C5.33537 14.1925 5.19816 14.577 5.19816 14.9934C5.19816 16.0186 6.02922 16.8496 7.05437 16.8496Z" fill="#5A5A5A"/>
<path fill-rule="evenodd" clip-rule="evenodd" d="M3.88054 13.9477C2.9707 14.0524 2.9707 14.3182 2.9707 14.9932C2.9707 17.2486 4.799 19.0769 7.05437 19.0769C9.30975 19.0769 11.138 17.2486 11.138 14.9932C11.138 14.6635 11.138 14.4314 11.0321 14.268C10.9211 14.0969 10.6937 14.0012 10.2282 13.9476C9.84753 13.9039 9.30759 13.8883 8.54179 13.8828C8.77338 14.1925 8.91059 14.577 8.91059 14.9934C8.91059 15.1229 8.89737 15.2492 8.87213 15.3711C8.69764 16.2152 7.95011 16.8496 7.05437 16.8496C6.15864 16.8496 5.4111 16.2152 5.23662 15.3711C5.21138 15.2492 5.19816 15.1228 5.19816 14.9934C5.19816 14.577 5.33537 14.1925 5.56695 13.8828C4.80115 13.8883 4.26122 13.9039 3.88054 13.9477Z" fill="#5A5A5A"/>
<path d="M11.8809 10.166H19.1317L18.5632 14.6209H11.8809V10.166Z" fill="#5A5A5A"/>
<path fill-rule="evenodd" clip-rule="evenodd" d="M17.4452 11.651H13.3658V13.136H17.2557L17.4452 11.651ZM11.8809 10.166V14.6209H18.5632L19.1317 10.166H11.8809Z" fill="#5A5A5A"/>
<path d="M21.5318 4.96875V10.9086L19.3043 13.1361V13.8786H17.8193L19.3043 4.96875H21.5318Z" fill="#5A5A5A"/>
<path fill-rule="evenodd" clip-rule="evenodd" d="M18.6749 4.22656H22.2738V11.2165L20.0463 13.4439V14.6214H16.9424L18.6749 4.22656ZM18.7837 12.6065L20.7888 10.6014V5.71153H19.9328L18.7837 12.6065Z" fill="#5A5A5A"/>
<path fill-rule="evenodd" clip-rule="evenodd" d="M23.3879 16.8509C24.413 16.8509 25.2441 16.0198 25.2441 14.9946C25.2441 14.7352 25.1908 14.4883 25.0948 14.264L27.2708 13.8477C27.6946 16.0629 26.2425 18.2022 24.0274 18.626C21.8122 19.0499 19.6728 17.5977 19.249 15.3825L21.5322 14.9456C21.5318 14.962 21.5316 14.9782 21.5316 14.9946C21.5316 16.0198 22.3626 16.8509 23.3879 16.8509Z" fill="#5A5A5A"/>
<path fill-rule="evenodd" clip-rule="evenodd" d="M19.249 15.3825C19.3733 16.0323 19.6452 16.6164 20.0234 17.1067C20.8589 18.1903 22.213 18.8162 23.6394 18.6814C23.7682 18.6692 23.8977 18.6509 24.0274 18.626C24.5288 18.5301 24.991 18.3463 25.4013 18.0936C26.272 17.5573 26.9087 16.7108 27.1877 15.7359C27.3581 15.1406 27.3951 14.4974 27.2708 13.8477L25.0948 14.264C25.1908 14.4883 25.2441 14.7352 25.2441 14.9946C25.2441 15.0102 25.2439 15.0258 25.2435 15.0414C25.2281 15.6643 24.9058 16.2111 24.4221 16.5362C24.2042 16.6828 23.9534 16.7843 23.6832 16.8275C23.62 16.8376 23.5557 16.8445 23.4905 16.848C23.4565 16.8499 23.4223 16.8509 23.3879 16.8509C22.6229 16.8509 21.9659 16.3881 21.6818 15.7273C21.5852 15.5025 21.5316 15.2548 21.5316 14.9946C21.5316 14.9782 21.5318 14.962 21.5322 14.9456L19.249 15.3825Z" fill="#5A5A5A"/>
<path d="M20.0988 14.8573C19.695 14.9285 19.3027 14.6573 19.3057 14.2472C19.3117 13.4252 19.5659 12.6176 20.0441 11.9348C20.6653 11.0476 21.6135 10.4435 22.6801 10.2554C23.7467 10.0673 24.8443 10.3107 25.7315 10.9319C26.4144 11.4101 26.9295 12.0819 27.2163 12.8524C27.3594 13.2367 27.0835 13.6256 26.6797 13.6968L23.3893 14.277L20.0988 14.8573Z" fill="#5A5A5A"/>
<path fill-rule="evenodd" clip-rule="evenodd" d="M26.4669 12.9824C26.2245 12.407 25.8236 11.9062 25.3041 11.5424C24.5781 11.0341 23.6801 10.835 22.8074 10.9888C21.9347 11.1428 21.1589 11.637 20.6507 12.3629C20.2869 12.8824 20.0814 13.4902 20.0505 14.1138L26.4669 12.9824ZM26.8069 14.4303L20.2261 15.5907C19.4633 15.7252 18.5545 15.2123 18.5616 14.2441C18.5687 13.2726 18.8692 12.3182 19.4343 11.5111C20.1685 10.4626 21.289 9.74875 22.5495 9.52645C23.8101 9.30422 25.1073 9.59179 26.1558 10.326C26.9629 10.8911 27.5716 11.6851 27.9106 12.5956C28.2483 13.503 27.5698 14.2958 26.8069 14.4303Z" fill="#5A5A5A"/>
<path d="M2.9707 6.45207C2.9707 5.22184 3.96794 4.22461 5.19816 4.22461H11.8805C13.1108 4.22461 14.108 5.22184 14.108 6.45207C14.108 6.86214 13.7756 7.19455 13.3655 7.19455H3.71319C3.30313 7.19455 2.9707 6.86214 2.9707 6.45207Z" fill="#5A5A5A"/>
<path fill-rule="evenodd" clip-rule="evenodd" d="M5.19816 4.22461C3.96794 4.22461 2.9707 5.22184 2.9707 6.45207C2.9707 6.86214 3.30313 7.19455 3.71319 7.19455H13.3655C13.7756 7.19455 14.108 6.86214 14.108 6.45207C14.108 5.22184 13.1108 4.22461 11.8805 4.22461H5.19816Z" fill="#5A5A5A"/>
<path d="M0 14.2916C0 10.3732 2.5987 8.68164 5.60992 8.68164H12.7707C13.0988 8.68164 13.3647 8.9476 13.3647 9.27563V13.1366C13.3647 13.9567 12.6999 14.6215 11.8798 14.6215H0.32999C0.14774 14.6215 0 14.4738 0 14.2916Z" fill="#5A5A5A"/>
<path fill-rule="evenodd" clip-rule="evenodd" d="M11.8798 10.1666H5.60992C4.36678 10.1666 3.34963 10.5157 2.66268 11.1267C2.18027 11.5558 1.77182 12.1923 1.58845 13.1366H11.8798V10.1666ZM5.60992 8.68164C2.5987 8.68164 0 10.3732 0 14.2916C0 14.4738 0.14774 14.6215 0.32999 14.6215H11.8798C12.6999 14.6215 13.3647 13.9567 13.3647 13.1366V9.27563C13.3647 8.9476 13.0988 8.68164 12.7707 8.68164H5.60992Z" fill="#5A5A5A"/>
<path d="M17.8193 3.11237C17.8193 1.67715 18.9828 0.513672 20.418 0.513672H23.3023C23.5547 0.513672 23.7592 0.718227 23.7592 0.970598V5.25414C23.7592 5.50651 23.5547 5.71107 23.3023 5.71107H20.418C18.9828 5.71107 17.8193 4.54759 17.8193 3.11237Z" fill="#5A5A5A"/>
<path fill-rule="evenodd" clip-rule="evenodd" d="M22.2742 1.99864H20.418C19.803 1.99864 19.3043 2.4973 19.3043 3.11237C19.3043 3.72745 19.803 4.2261 20.418 4.2261H22.2742V1.99864ZM20.418 0.513672C18.9828 0.513672 17.8193 1.67715 17.8193 3.11237C17.8193 4.54759 18.9828 5.71107 20.418 5.71107H23.3023C23.5547 5.71107 23.7592 5.50651 23.7592 5.25414V0.970598C23.7592 0.718227 23.5547 0.513672 23.3023 0.513672H20.418Z" fill="#5A5A5A"/>
<path d="M14.9781 1.98713C15.0491 1.58329 15.434 1.3134 15.8379 1.38438L18.0317 1.76995C18.4357 1.84093 18.7055 2.22584 18.6345 2.62975C18.5635 3.03359 18.1786 3.30348 17.7747 3.2325L15.5809 2.84693C15.177 2.77594 14.9071 2.39104 14.9781 1.98713Z" fill="#5A5A5A"/>
</svg>
