<svg width="20" height="20" viewBox="0 0 20 20" fill="none" xmlns="http://www.w3.org/2000/svg">
<path d="M19.5816 10.0773L20.5816 10.086L20.5817 10.0774L20.5816 10.0688L19.5816 10.0773ZM12.4941 12.1117L13.2318 12.787L13.2404 12.7773L12.4941 12.1117ZM6.98164 18.1328L6.24407 17.4575L6.24315 17.4585L6.98164 18.1328ZM5.16875 18.0098L6.06975 18.4436L6.07495 18.4328L6.07989 18.4219L5.16875 18.0098ZM8.00703 11.7344L8.91817 12.1465L9.48354 10.8965L8.12047 10.7408L8.00703 11.7344ZM3.83984 11.2586L3.95328 10.265L3.2842 10.1887L2.96185 10.7799L3.83984 11.2586ZM2.35508 13.982L1.47708 13.5034L1.47579 13.5057L2.35508 13.982ZM2.35508 6.17266L1.46786 6.63401L1.47239 6.64271L1.47708 6.65132L2.35508 6.17266ZM3.83984 8.89609L2.96185 9.37476L3.2842 9.96603L3.95328 9.88964L3.83984 8.89609ZM8.00703 8.42031L8.12047 9.41386L9.48354 9.25823L8.91817 8.00822L8.00703 8.42031ZM5.16875 2.14492L6.07993 1.7328L6.07576 1.72381L5.16875 2.14492ZM6.98164 2.02188L6.22906 2.68038L6.2367 2.6891L6.24453 2.69765L6.98164 2.02188ZM12.4941 8.03477L13.2492 7.37908L13.2403 7.36892L13.2313 7.359L12.4941 8.03477ZM18.5817 10.0687C18.5816 10.0721 18.5813 10.0763 18.5783 10.0847C18.575 10.094 18.5663 10.1137 18.5447 10.143C18.4991 10.2046 18.4048 10.2959 18.2347 10.3919C17.8903 10.5864 17.3494 10.7344 16.7023 10.7344V12.7344C17.622 12.7344 18.5167 12.5296 19.2182 12.1334C19.9004 11.7482 20.5732 11.0651 20.5816 10.086L18.5817 10.0687ZM16.7023 10.7344H13.3965V12.7344H16.7023V10.7344ZM13.3965 10.7344C13.1317 10.7344 12.8104 10.7516 12.4874 10.8872C12.1506 11.0286 11.921 11.2519 11.7478 11.4461L13.2404 12.7773C13.2889 12.723 13.3101 12.7051 13.3132 12.7026C13.3135 12.7023 13.3083 12.7065 13.2982 12.7126C13.2878 12.719 13.2753 12.7255 13.2617 12.7313C13.2327 12.7434 13.2184 12.7438 13.2357 12.7414C13.2578 12.7383 13.3046 12.7344 13.3965 12.7344V10.7344ZM11.7566 11.4364L6.24407 17.4575L7.71921 18.8081L13.2317 12.787L11.7566 11.4364ZM6.24315 17.4585C6.23247 17.4702 6.23796 17.4605 6.26391 17.4482C6.27657 17.4422 6.29152 17.4368 6.30789 17.4331C6.32429 17.4294 6.33878 17.4281 6.35 17.4281V19.4281C6.91745 19.4281 7.38744 19.1715 7.72013 18.8071L6.24315 17.4585ZM6.35 17.4281H5.39844V19.4281H6.35V17.4281ZM5.39844 17.4281C5.61498 17.4281 5.88018 17.5413 6.03115 17.8046C6.17879 18.0621 6.13332 18.3116 6.06975 18.4436L4.26775 17.5759C4.09754 17.9295 4.06027 18.3881 4.29609 18.7994C4.53524 19.2165 4.96861 19.4281 5.39844 19.4281V17.4281ZM6.07989 18.4219L8.91817 12.1465L7.09589 11.3223L4.25761 17.5977L6.07989 18.4219ZM8.12047 10.7408L3.95328 10.265L3.72641 12.2521L7.89359 12.7279L8.12047 10.7408ZM2.96185 10.7799L1.47708 13.5034L3.23307 14.4607L4.71784 11.7373L2.96185 10.7799ZM1.47579 13.5057C1.49058 13.4784 1.51542 13.4413 1.55389 13.4028C1.59294 13.3638 1.6373 13.3321 1.68258 13.309C1.77121 13.2637 1.82645 13.2691 1.79727 13.2691V15.2691C2.03879 15.2691 2.31961 15.2295 2.59281 15.0898C2.87968 14.9432 3.09287 14.7195 3.23437 14.4583L1.47579 13.5057ZM1.79727 13.2691H1.44453V15.2691H1.79727V13.2691ZM1.44453 13.2691C1.54328 13.2691 1.72276 13.3028 1.88321 13.4579C2.04785 13.617 2.0918 13.8069 2.0918 13.9246H0.0917968C0.0917968 14.2556 0.205474 14.6177 0.493161 14.8958C0.77665 15.1699 1.1325 15.2691 1.44453 15.2691V13.2691ZM2.0918 13.9246V6.23008H0.0917968V13.9246H2.0918ZM2.0918 6.23008C2.0918 6.34577 2.04959 6.52654 1.89529 6.68084C1.74099 6.83514 1.56023 6.87734 1.44453 6.87734V4.87734C1.11555 4.87734 0.758425 4.98928 0.481077 5.26662C0.203728 5.54397 0.0917968 5.9011 0.0917968 6.23008H2.0918ZM1.44453 6.87734H1.79727V4.87734H1.44453V6.87734ZM1.79727 6.87734C1.82696 6.87734 1.76763 6.88299 1.67479 6.83451C1.62736 6.80973 1.58196 6.77624 1.54287 6.73591C1.50454 6.69635 1.48097 6.65923 1.46786 6.63401L3.24229 5.7113C3.10422 5.44578 2.89248 5.21411 2.6006 5.06169C2.32319 4.91682 2.03827 4.87734 1.79727 4.87734V6.87734ZM1.47708 6.65132L2.96185 9.37476L4.71784 8.41743L3.23307 5.69399L1.47708 6.65132ZM3.95328 9.88964L8.12047 9.41386L7.89359 7.42677L3.72641 7.90255L3.95328 9.88964ZM8.91817 8.00822L6.07989 1.73283L4.25761 2.55702L7.09589 8.83241L8.91817 8.00822ZM6.07576 1.72381C6.12793 1.83617 6.18315 2.08546 6.02825 2.35203C5.86937 2.62545 5.59762 2.72656 5.39844 2.72656V0.726563C4.98597 0.726563 4.54606 0.922015 4.299 1.34719C4.05591 1.76552 4.10293 2.22399 4.26174 2.56603L6.07576 1.72381ZM5.39844 2.72656H6.35V0.726563H5.39844V2.72656ZM6.35 2.72656C6.3361 2.72656 6.30569 2.72292 6.2711 2.7068C6.23751 2.69114 6.22452 2.67519 6.22906 2.68038L7.73422 1.36337C7.38192 0.960748 6.8991 0.726563 6.35 0.726563V2.72656ZM6.24453 2.69765L11.757 8.71054L13.2313 7.359L7.71875 1.34611L6.24453 2.69765ZM11.7391 8.69045C11.9117 8.88918 12.1416 9.11865 12.4815 9.26394C12.8077 9.40338 13.1325 9.42031 13.3965 9.42031V7.42031C13.3044 7.42031 13.2583 7.41633 13.2372 7.4134C13.2209 7.41114 13.237 7.41182 13.2676 7.42493C13.2821 7.43111 13.2952 7.43811 13.3061 7.44489C13.3167 7.45147 13.3221 7.45596 13.3219 7.45579C13.319 7.45337 13.2977 7.43497 13.2492 7.37908L11.7391 8.69045ZM13.3965 9.42031H16.7023V7.42031H13.3965V9.42031ZM16.7023 9.42031C17.3515 9.42031 17.8925 9.56705 18.236 9.7604C18.4055 9.85576 18.499 9.94639 18.5441 10.0075C18.5839 10.0613 18.5817 10.0839 18.5817 10.0859L20.5816 10.0688C20.5732 9.08697 19.9022 8.40311 19.2169 8.01743C18.5146 7.62221 17.62 7.42031 16.7023 7.42031V9.42031Z" fill="#98A2B3"/>
</svg>
