<svg width="25" height="25" viewBox="0 0 25 25" fill="none" xmlns="http://www.w3.org/2000/svg">
<path opacity="0.5" d="M4.76687 14.674C3.52009 14.674 2.5 13.6859 2.5 12.5001C2.5 11.2946 3.52009 10.3262 4.76687 10.3262C6.05487 10.3262 7.05435 11.2847 7.05435 12.5001C7.05435 13.6859 6.01365 14.674 4.76687 14.674ZM12.5052 14.674C11.2584 14.674 10.2383 13.6859 10.2383 12.5001C10.2383 11.2946 11.2584 10.3262 12.5052 10.3262C13.7725 10.3262 14.7617 11.2847 14.7617 12.5001C14.7617 13.6859 13.7313 14.674 12.5052 14.674ZM20.2331 14.674C18.976 14.674 17.956 13.6859 17.956 12.5001C17.956 11.2946 18.976 10.3262 20.2331 10.3262C21.5108 10.3262 22.5 11.2847 22.5 12.5001C22.5 13.6859 21.4696 14.674 20.2331 14.674Z" fill="black"/>
</svg>
