<svg width="26" height="26" viewBox="0 0 26 26" fill="none" xmlns="http://www.w3.org/2000/svg">
<path d="M13 24.2012C7.0166 24.2012 2.04297 19.2275 2.04297 13.2441C2.04297 7.25 7.00586 2.28711 12.9893 2.28711C18.9834 2.28711 23.957 7.25 23.957 13.2441C23.957 19.2275 18.9941 24.2012 13 24.2012ZM7.38184 14.4043H12.9893C13.4082 14.4043 13.7412 14.082 13.7412 13.6523V6.41211C13.7412 5.99316 13.4082 5.6709 12.9893 5.6709C12.5703 5.6709 12.248 5.99316 12.248 6.41211V12.9111H7.38184C6.95215 12.9111 6.62988 13.2334 6.62988 13.6523C6.62988 14.082 6.95215 14.4043 7.38184 14.4043Z" fill="#408C40"/>
</svg>
