<svg width="28" height="18" viewBox="0 0 28 18" fill="none" xmlns="http://www.w3.org/2000/svg">
<path d="M5.41796 17.8271C4.66667 17.8271 3.9645 17.6839 3.31146 17.3973C2.65841 17.1166 2.08338 16.7248 1.58638 16.2219C1.08937 15.719 0.699278 15.1371 0.416099 14.4763C0.1387 13.8155 0 13.1079 0 12.3535C0 11.5932 0.1387 10.8827 0.416099 10.2219C0.699278 9.56107 1.08937 8.97919 1.58638 8.47627C2.08338 7.97335 2.65841 7.58153 3.31146 7.30083C3.9645 7.02013 4.66667 6.87978 5.41796 6.87978C6.16347 6.87978 6.86275 7.02013 7.51579 7.30083C8.16883 7.58153 8.74386 7.97335 9.24087 8.47627C9.73787 8.97919 10.1251 9.56107 10.4025 10.2219C10.6857 10.8827 10.8272 11.5932 10.8272 12.3535C10.8272 13.1079 10.6857 13.8155 10.4025 14.4763C10.1251 15.1371 9.73787 15.719 9.24087 16.2219C8.74386 16.7248 8.16883 17.1166 7.51579 17.3973C6.86275 17.6839 6.16347 17.8271 5.41796 17.8271ZM5.41796 16.7657C6.01899 16.7657 6.58246 16.6517 7.10836 16.4236C7.64004 16.2014 8.10526 15.8856 8.50402 15.4763C8.90279 15.0728 9.21486 14.6049 9.44025 14.0728C9.66564 13.5347 9.77833 12.9617 9.77833 12.3535C9.77833 11.7453 9.66564 11.1751 9.44025 10.6429C9.21486 10.1049 8.90279 9.63417 8.50402 9.23066C8.10526 8.8213 7.64004 8.50259 7.10836 8.27452C6.58246 8.04645 6.01899 7.93241 5.41796 7.93241C4.81115 7.93241 4.24479 8.04645 3.71889 8.27452C3.19298 8.50259 2.72776 8.8213 2.32322 9.23066C1.92446 9.63417 1.61238 10.102 1.387 10.6342C1.16161 11.1663 1.04892 11.7394 1.04892 12.3535C1.04892 12.9675 1.16161 13.5435 1.387 14.0815C1.61238 14.6137 1.92446 15.0815 2.32322 15.485C2.72776 15.8886 3.19298 16.2014 3.71889 16.4236C4.24479 16.6517 4.81115 16.7657 5.41796 16.7657ZM22.5907 17.8271C21.8452 17.8271 21.143 17.6868 20.4842 17.4061C19.8312 17.1254 19.2561 16.7336 18.7591 16.2307C18.2621 15.7277 17.872 15.1459 17.5889 14.485C17.3115 13.8242 17.1728 13.1137 17.1728 12.3535C17.1728 11.5991 17.3115 10.8915 17.5889 10.2307C17.872 9.56399 18.2621 8.98212 18.7591 8.48504C19.2561 7.98212 19.8312 7.59031 20.4842 7.3096C21.143 7.02305 21.8452 6.87978 22.5907 6.87978C23.3362 6.87978 24.0355 7.02305 24.6885 7.3096C25.3416 7.59031 25.9166 7.98212 26.4136 8.48504C26.9106 8.98212 27.2978 9.56399 27.5752 10.2307C27.8584 10.8915 28 11.5991 28 12.3535C28 13.1137 27.8584 13.8242 27.5752 14.485C27.2978 15.14 26.9106 15.719 26.4136 16.2219C25.9166 16.7248 25.3416 17.1166 24.6885 17.3973C24.0355 17.6839 23.3362 17.8271 22.5907 17.8271ZM22.5907 16.7745C23.1917 16.7745 23.7552 16.6605 24.2811 16.4324C24.8128 16.2043 25.278 15.8856 25.6768 15.4763C26.0755 15.0728 26.3876 14.6049 26.613 14.0728C26.8442 13.5347 26.9598 12.9617 26.9598 12.3535C26.9598 11.7453 26.8442 11.1751 26.613 10.6429C26.3876 10.1108 26.0755 9.64294 25.6768 9.23943C25.278 8.83007 24.8128 8.51136 24.2811 8.28329C23.7552 8.05522 23.1917 7.94118 22.5907 7.94118C21.9897 7.94118 21.4233 8.05522 20.8916 8.28329C20.36 8.51136 19.8947 8.82715 19.496 9.23066C19.103 9.63417 18.7909 10.1049 18.5598 10.6429C18.3344 11.1751 18.2217 11.7453 18.2217 12.3535C18.2217 13.1722 18.4153 13.9178 18.8025 14.5903C19.1955 15.257 19.7214 15.7862 20.3802 16.178C21.0448 16.5757 21.7816 16.7745 22.5907 16.7745ZM14.8669 0.853464C14.8669 0.707265 14.916 0.584458 15.0142 0.485043C15.1183 0.37978 15.2425 0.327148 15.387 0.327148H17.9096C18.3026 0.327148 18.5626 0.493815 18.6898 0.827148L22.9981 12.0552L22.0359 12.3973L17.8663 1.44996C17.8431 1.39732 17.7998 1.37101 17.7362 1.37101H15.387C15.2425 1.37101 15.1183 1.3213 15.0142 1.22189C14.916 1.12247 14.8669 0.999663 14.8669 0.853464ZM20.1028 6.05522L10.9226 7.45873V6.47627L20.1028 5.07276V6.05522ZM13.0118 12.985H5.53932V12.0026H13.0118V12.985ZM14.052 14.0815C13.7399 14.0815 13.4568 14.0055 13.2025 13.8535C12.9482 13.6956 12.7459 13.4909 12.5957 13.2394C12.4512 12.9821 12.3789 12.7014 12.3789 12.3973C12.3789 12.0815 12.4541 11.7979 12.6043 11.5464C12.7604 11.2891 12.9626 11.0874 13.2111 10.9412C13.4654 10.7891 13.7457 10.7131 14.052 10.7131C14.3583 10.7131 14.6357 10.7891 14.8842 10.9412C15.1385 11.0874 15.3408 11.2891 15.491 11.5464C15.6413 11.7979 15.7164 12.0815 15.7164 12.3973C15.7164 12.7073 15.6413 12.988 15.491 13.2394C15.3408 13.4909 15.1385 13.6956 14.8842 13.8535C14.6357 14.0055 14.3583 14.0815 14.052 14.0815ZM14.0607 13.1342C14.263 13.1342 14.4334 13.064 14.5721 12.9236C14.7166 12.7774 14.7889 12.602 14.7889 12.3973C14.7889 12.1868 14.7166 12.0114 14.5721 11.871C14.4334 11.7248 14.263 11.6517 14.0607 11.6517C13.8526 11.6517 13.6764 11.7248 13.5319 11.871C13.3874 12.0172 13.3152 12.1926 13.3152 12.3973C13.3152 12.602 13.3874 12.7774 13.5319 12.9236C13.6764 13.064 13.8526 13.1342 14.0607 13.1342ZM5.41796 13.3271C5.14634 13.3271 4.91517 13.2336 4.72446 13.0464C4.53375 12.8535 4.44128 12.6225 4.44706 12.3535C4.44706 12.0728 4.53953 11.8388 4.72446 11.6517C4.91517 11.4646 5.14634 11.371 5.41796 11.371C5.68958 11.371 5.91785 11.4675 6.10279 11.6605C6.2935 11.8476 6.38885 12.0786 6.38885 12.3535C6.38885 12.6225 6.2935 12.8535 6.10279 13.0464C5.91207 13.2336 5.6838 13.3271 5.41796 13.3271ZM22.5907 13.3359C22.3191 13.3359 22.0879 13.2394 21.8972 13.0464C21.7065 12.8535 21.614 12.6225 21.6198 12.3535C21.6256 12.0786 21.7209 11.8476 21.9059 11.6605C22.0966 11.4733 22.3249 11.3798 22.5907 11.3798C22.8623 11.3798 23.0906 11.4733 23.2755 11.6605C23.4663 11.8476 23.5616 12.0786 23.5616 12.3535C23.5616 12.6225 23.4663 12.8535 23.2755 13.0464C23.0848 13.2394 22.8566 13.3359 22.5907 13.3359ZM14.0087 11.0464L18.9845 5.57276L20.1375 5.6868L14.8582 11.5552L14.0087 11.0464ZM5.01053 11.95L10.3071 6.49381L11.096 7.12539L5.86006 12.4587L5.01053 11.95ZM12.9424 11.7043L8.79876 3.87101L9.80433 3.64294L13.792 11.0903L12.9424 11.7043ZM7.2904 3.54645C7.2904 3.40025 7.33953 3.27744 7.43777 3.17803C7.5418 3.07276 7.66316 3.02013 7.80186 3.02013H11.018C11.1567 3.02013 11.278 3.07276 11.382 3.17803C11.4861 3.27744 11.5381 3.40025 11.5381 3.54645C11.5381 3.6868 11.4861 3.8096 11.382 3.91487C11.2838 4.01428 11.1624 4.06399 11.018 4.06399H7.80186C7.65738 4.06399 7.53602 4.01428 7.43777 3.91487C7.33953 3.8096 7.2904 3.6868 7.2904 3.54645Z" fill="#5A5A5A"/>
</svg>
