<svg width="29" height="40" viewBox="0 0 29 40" fill="none" xmlns="http://www.w3.org/2000/svg">
<path d="M13.0612 39.0829C2.46656 22.7211 0.5 21.0419 0.5 15.0287C0.5 6.79192 6.76799 0.114746 14.5 0.114746C22.232 0.114746 28.5 6.79192 28.5 15.0287C28.5 21.0419 26.5334 22.7211 15.9388 39.0829C15.2435 40.1528 13.7564 40.1527 13.0612 39.0829ZM14.5 21.2428C17.7217 21.2428 20.3333 18.4607 20.3333 15.0287C20.3333 11.5967 17.7217 8.81455 14.5 8.81455C11.2783 8.81455 8.66667 11.5967 8.66667 15.0287C8.66667 18.4607 11.2783 21.2428 14.5 21.2428Z" fill="#408C40"/>
</svg>
